<?xml version="1.0" standalone="no"?>
<!DOCTYPE svg PUBLIC "-//W3C//DTD SVG 20010904//EN"
 "http://www.w3.org/TR/2001/REC-SVG-20010904/DTD/svg10.dtd">
<svg version="1.0" xmlns="http://www.w3.org/2000/svg"
 width="800.000000pt" height="800.000000pt" viewBox="0 0 800.000000 800.000000"
 preserveAspectRatio="xMidYMid meet">

<g transform="translate(0.000000,800.000000) scale(0.100000,-0.100000)"
fill="#" stroke="none">
<path d="M7979 6663 c-1 -736 -3 -1330 -6 -1320 -5 21 -33 23 -33 2 0 -8 5
-15 10 -15 6 0 10 -11 10 -25 0 -31 -20 -33 -21 -2 -1 21 -1 21 -9 -3 -20 -62
0 -186 29 -175 11 4 12 -3 7 -34 -3 -23 -2 -42 4 -46 13 -8 12 -885 -1 -885
-5 0 -9 9 -9 20 0 11 -3 20 -8 20 -4 0 -13 14 -20 30 -8 18 -21 30 -33 30 -15
0 -19 -7 -19 -36 0 -40 -16 -77 -31 -69 -5 4 -9 -24 -9 -69 0 -50 4 -76 13
-79 10 -4 10 -6 0 -6 -9 -1 -13 -24 -13 -81 l0 -80 29 0 c26 0 29 -4 33 -37 3
-21 2 -39 -1 -40 -3 -2 -5 -140 -4 -308 2 -309 11 -415 38 -415 11 0 35 -48
35 -71 0 -5 -11 -9 -25 -9 -23 0 -25 -4 -25 -46 0 -27 4 -43 10 -39 6 3 10 -3
10 -15 0 -12 -4 -18 -10 -15 -6 4 -10 -5 -10 -19 0 -14 5 -26 11 -26 6 0 1 -8
-12 -19 -20 -16 -22 -22 -12 -42 l12 -24 0 28 c1 15 5 27 10 27 9 0 19 -65 19
-124 0 -16 7 -33 16 -38 15 -8 16 -129 16 -1308 0 -860 3 -1300 10 -1300 7 0
10 1340 10 4000 0 2660 -3 4000 -10 4000 -7 0 -10 -453 -11 -1337z m-12 -1510
c-3 -10 -5 -2 -5 17 0 19 2 27 5 18 2 -10 2 -26 0 -35z m-17 -1273 c0 -29 -4
-40 -15 -40 -11 0 -15 11 -15 40 0 29 4 40 15 40 11 0 15 -11 15 -40z m17 -22
c-2 -13 -4 -3 -4 22 0 25 2 35 4 23 2 -13 2 -33 0 -45z m-8 -304 c-2 -135 -1
-235 2 -222 4 17 7 11 12 -26 10 -68 9 -108 -2 -101 -5 3 -12 1 -16 -5 -14
-23 -20 -7 -17 47 4 70 -15 63 -21 -7 -2 -25 -4 80 -5 233 -2 251 0 281 16
302 9 14 21 25 26 25 4 0 6 -111 5 -246z m21 -735 c0 -44 -3 -60 -12 -56 -7 2
-13 9 -12 15 1 7 2 32 3 57 2 68 21 54 21 -16z"/>
<path d="M7920 3556 c0 -113 4 -187 10 -191 7 -4 10 60 10 184 0 121 -4 191
-10 191 -6 0 -10 -68 -10 -184z"/>
<path d="M3825 7823 c-22 -3 -47 -11 -55 -18 -9 -8 -49 -16 -95 -19 -178 -11
-273 -31 -415 -85 -30 -12 -62 -21 -72 -21 -23 0 -68 -21 -68 -32 0 -5 10 -7
23 -3 21 6 21 6 3 -9 -26 -21 -57 -21 -49 0 5 14 1 14 -33 -1 -22 -10 -63 -26
-93 -37 -74 -26 -243 -113 -304 -154 -27 -19 -53 -34 -58 -34 -12 0 -102 -62
-112 -77 -4 -7 -14 -13 -21 -13 -8 0 -35 -20 -62 -45 -26 -25 -51 -45 -55 -45
-5 0 -26 -17 -47 -37 -21 -21 -77 -72 -122 -113 -163 -146 -297 -286 -338
-352 -11 -18 -34 -46 -51 -62 -17 -17 -31 -34 -31 -39 0 -5 -20 -32 -45 -60
-25 -29 -45 -55 -45 -60 0 -4 -20 -38 -45 -76 -25 -38 -45 -78 -45 -90 0 -11
-4 -21 -9 -21 -8 0 -81 -94 -81 -104 0 -2 -18 -35 -40 -73 -22 -38 -46 -88
-54 -111 -17 -49 -40 -100 -67 -155 -10 -22 -19 -43 -19 -49 0 -6 -16 -42 -35
-82 -19 -39 -41 -103 -49 -141 -8 -39 -23 -91 -34 -115 -23 -54 -53 -142 -77
-225 -9 -33 -30 -100 -46 -149 -16 -49 -29 -99 -29 -110 0 -12 -20 -101 -45
-199 -24 -98 -49 -214 -54 -257 -6 -43 -19 -122 -30 -176 -11 -55 -25 -142
-32 -194 -6 -52 -13 -98 -15 -102 -2 -3 -9 -53 -15 -110 -5 -56 -19 -152 -29
-213 -36 -203 -60 -398 -60 -493 0 -51 -4 -135 -10 -185 -10 -101 -33 -407
-33 -447 0 -14 -4 -56 -9 -95 -39 -295 -55 -1257 -33 -1960 5 -146 9 -330 14
-552 l1 -23 3441 0 c3386 0 3440 0 3434 19 -3 11 -8 64 -10 118 -7 166 -35
640 -46 783 -6 74 -14 234 -19 355 -4 121 -13 261 -19 310 -6 50 -15 140 -20
200 -32 381 -74 771 -98 905 -8 47 -15 94 -14 105 2 54 -62 598 -101 855 -6
41 -15 127 -19 190 -19 271 -76 652 -131 880 -22 91 -42 179 -45 195 -8 57
-35 161 -69 271 -19 61 -34 118 -34 128 0 19 -49 176 -60 191 -4 6 -15 39 -24
75 -10 36 -23 74 -30 85 -6 11 -25 54 -40 95 -31 81 -49 125 -76 180 -10 19
-25 58 -34 87 -18 55 -132 284 -145 293 -5 3 -24 35 -44 71 -46 88 -196 315
-236 358 -17 18 -31 36 -31 39 0 4 -19 25 -41 48 -28 28 -47 40 -58 36 -13 -5
-14 -3 -3 10 10 13 5 23 -33 64 -25 27 -45 52 -45 56 0 11 -33 48 -43 48 -4 0
-5 -5 -1 -12 4 -7 3 -8 -4 -4 -6 4 -9 13 -5 21 3 8 1 15 -3 15 -5 0 -27 16
-48 35 -22 19 -46 35 -53 35 -8 0 -11 5 -8 10 3 6 -1 10 -10 10 -8 0 -18 6
-21 13 -2 7 -15 14 -27 14 -22 2 -22 2 3 -17 14 -10 22 -21 19 -24 -3 -4 -18
3 -33 15 -23 18 -25 23 -14 37 11 13 10 14 -16 8 -23 -6 -27 -4 -23 7 4 10 0
13 -11 10 -10 -2 -31 3 -47 11 -35 18 -55 20 -55 6 0 -5 6 -10 13 -10 8 0 21
-8 30 -17 13 -16 14 -20 1 -37 -13 -18 -14 -18 -14 -2 0 10 -9 20 -20 23 -11
3 -20 10 -20 15 0 5 -5 6 -10 3 -6 -4 -8 -11 -5 -16 3 -5 -1 -6 -9 -3 -9 3
-16 11 -16 16 0 6 -9 8 -20 5 -22 -6 -88 15 -142 46 -21 11 -41 17 -45 13 -4
-4 -3 -10 2 -14 6 -4 21 -20 35 -36 l25 -28 -23 7 c-21 6 -23 5 -13 -13 6 -12
15 -24 21 -27 5 -3 7 -12 3 -20 -3 -10 1 -15 11 -15 14 0 15 -4 6 -20 -9 -16
-15 -18 -30 -10 -27 15 -32 13 -25 -10 5 -15 2 -20 -12 -21 -10 0 -38 -3 -62
-5 -47 -6 -65 7 -55 38 3 12 0 15 -13 13 -10 -1 -17 -8 -16 -14 2 -6 -4 -11
-12 -11 -8 0 -15 7 -15 15 0 8 -4 15 -10 15 -5 0 -12 0 -15 0 -10 1 -121 63
-137 78 -10 8 -18 11 -18 5 0 -5 20 -24 44 -42 54 -41 91 -88 73 -94 -8 -3 0
-17 21 -39 29 -31 48 -68 20 -40 -14 14 -38 16 -38 3 0 -4 12 -21 28 -36 26
-27 26 -28 4 -23 -12 4 -20 2 -16 -3 3 -5 -4 -9 -15 -9 -12 0 -21 5 -21 10 0
6 -5 10 -11 10 -7 0 -9 -10 -5 -26 7 -28 5 -27 -47 9 -16 10 -31 16 -35 13 -3
-4 -2 -10 3 -14 16 -11 35 -50 27 -55 -4 -2 -2 -3 3 -1 17 3 41 -19 49 -44 5
-16 3 -22 -8 -22 -8 0 -17 4 -20 9 -4 5 -23 8 -44 6 -20 -1 -41 1 -47 5 -5 4
-25 5 -42 3 -30 -5 -32 -7 -19 -25 8 -11 12 -27 9 -35 -4 -9 2 -16 16 -20 11
-3 21 -9 21 -13 0 -5 7 -16 16 -24 14 -15 14 -16 -4 -16 -10 0 -22 3 -26 7 -6
6 -68 31 -91 36 -5 2 -15 6 -20 9 -6 4 -17 3 -25 -3 -12 -7 -10 -9 9 -9 20 0
22 -4 17 -25 -4 -14 -2 -25 4 -25 5 0 10 -5 10 -11 0 -6 -9 -9 -20 -6 -13 3
-20 0 -20 -9 0 -8 5 -14 10 -14 7 0 7 -6 0 -19 -15 -29 -14 -30 37 -78 62 -56
42 -55 -41 2 -37 25 -70 45 -75 45 -5 0 -32 16 -61 35 -29 19 -58 35 -65 35
-8 0 -17 5 -20 10 -5 9 32 16 58 11 11 -2 0 18 -26 47 -18 20 -19 22 -3 22 9
0 14 5 11 10 -3 6 -15 10 -27 10 -15 0 -19 5 -15 19 2 11 -3 25 -14 35 -37 31
-22 42 50 37 44 -4 38 17 -15 46 -45 25 -50 46 -14 51 42 6 47 21 9 29 l-34 7
40 17 39 18 -27 12 c-70 32 0 53 85 25 24 -8 61 -17 83 -21 38 -6 39 -6 20 9
-11 9 -37 21 -58 26 -31 9 -36 14 -27 25 13 15 7 20 -37 30 -40 8 -43 23 -5
27 32 4 119 -7 147 -18 18 -7 18 -6 5 7 -14 14 -85 51 -120 63 -11 3 -9 7 8
12 21 6 21 7 5 20 -27 19 -4 36 54 38 44 1 48 3 48 25 0 14 6 26 13 29 27 9
11 28 -20 25 l-33 -3 27 11 c26 10 27 12 12 34 -17 26 -15 29 44 44 23 7 42
18 42 25 0 17 -52 19 -107 5 -26 -7 -47 -8 -58 -2 -15 9 -14 11 7 25 13 8 36
18 51 22 26 6 28 10 22 38 -5 21 -3 33 6 40 10 6 7 7 -8 3 -28 -8 -29 0 -2 28
l20 22 -30 3 c-16 2 -40 -2 -52 -8 -16 -9 -23 -9 -29 -1 -3 7 -14 9 -23 5 -11
-4 -19 0 -23 10 -3 9 -14 16 -24 16 -10 0 -40 13 -67 29 -58 35 -105 48 -97
27 3 -8 12 -17 20 -20 8 -3 14 -10 14 -16 0 -6 -12 -4 -30 5 -36 19 -46 19
-31 1 16 -19 -1 -29 -34 -20 -21 5 -25 3 -25 -15 0 -20 -4 -21 -36 -15 -27 5
-35 4 -30 -5 10 -16 -15 -14 -52 5 -18 8 -44 14 -59 12 l-28 -3 30 -17 c17
-10 26 -17 21 -18 -5 0 -1 -9 9 -20 16 -18 16 -20 2 -20 -23 0 -21 -8 6 -31
l22 -18 -23 -1 c-15 0 -21 -4 -16 -12 5 -8 2 -9 -9 -5 -41 15 -367 30 -367 16
0 -4 19 -12 43 -17 39 -9 36 -10 -43 -12 -47 -1 -107 -5 -135 -9 l-50 -7 55
-7 c30 -3 100 -9 154 -11 55 -3 104 -10 110 -16 5 -5 18 -10 28 -10 30 0 20
-17 -14 -25 -29 -7 -22 -9 47 -17 112 -13 118 -28 13 -28 -48 0 -90 -4 -93
-10 -4 -6 16 -10 52 -10 32 0 65 -5 73 -10 11 -7 5 -10 -25 -10 -22 0 -58 -3
-80 -7 -33 -6 -36 -8 -17 -12 39 -10 26 -25 -30 -37 -29 -7 -48 -12 -43 -13 6
-1 15 -12 22 -26 10 -23 9 -25 -15 -25 -15 0 -51 -3 -81 -7 -65 -7 -65 13 0
23 23 4 38 11 36 18 -4 12 -278 13 -334 1 -56 -12 -37 11 27 35 34 13 58 25
55 29 -7 6 -12 7 -57 9 -18 1 -28 8 -28 17 0 8 -6 15 -14 15 -7 0 -16 9 -19
21 -6 23 4 22 -152 3 l-40 -5 28 16 c15 9 27 18 27 21 0 4 -12 3 -27 -1 -17
-4 -24 -3 -18 3 14 12 195 72 220 72 14 0 16 3 8 11 -24 24 -281 7 -335 -22
-10 -5 -18 -7 -18 -3 0 3 -7 1 -15 -6 -9 -7 -18 -10 -22 -6 -3 3 0 6 8 7 8 0
6 4 -6 9 -19 8 -19 9 2 9 12 1 24 5 28 10 3 5 19 12 35 16 17 4 43 13 58 20
15 8 39 18 55 24 15 6 27 15 27 21 0 6 -5 8 -11 5 -20 -13 -102 -17 -94 -6 3
6 24 11 46 11 21 0 47 4 57 9 9 5 26 13 37 16 l20 7 -20 8 c-11 4 -31 3 -44
-2 -13 -5 -33 -6 -45 -2 -17 6 -13 9 24 21 25 7 83 21 129 30 61 11 79 18 67
25 -37 21 -26 26 139 63 33 7 85 21 115 29 30 9 67 16 83 16 15 0 27 5 27 10
0 10 -45 11 -125 3z m-235 -73 c-20 -13 -53 -13 -45 0 3 6 18 10 33 10 21 0
24 -2 12 -10z m-62 -30 c7 -12 8 -20 2 -20 -5 0 -10 5 -10 10 0 6 -10 10 -22
10 -17 0 -19 -3 -10 -9 11 -7 10 -10 -3 -15 -22 -8 -25 -8 -25 3 0 14 29 41
43 41 7 0 18 -9 25 -20z m-94 -31 c-3 -5 -10 -7 -15 -3 -5 3 -7 10 -3 15 3 5
10 7 15 3 5 -3 7 -10 3 -15z m-44 1 c0 -5 -19 -10 -42 -9 -33 0 -38 2 -23 9
28 12 65 12 65 0z m-117 -17 c-7 -2 -21 -2 -30 0 -10 3 -4 5 12 5 17 0 24 -2
18 -5z m841 -412 c7 -11 -75 -24 -97 -15 -9 3 -17 10 -17 15 0 12 107 12 114
0z m53 3 c-3 -3 -12 -4 -19 -1 -8 3 -5 6 6 6 11 1 17 -2 13 -5z m143 -17 c21
-9 22 -11 7 -14 -10 -3 -32 0 -49 6 -17 6 -42 11 -54 11 -13 0 -24 4 -24 10 0
11 82 2 120 -13z m80 -27 c24 -15 7 -18 -25 -4 -23 10 -25 13 -10 13 11 1 27
-3 35 -9z m1345 -50 c3 -5 1 -10 -4 -10 -6 0 -11 5 -11 10 0 6 2 10 4 10 3 0
8 -4 11 -10z m-1185 -64 c0 -7 -9 -16 -20 -19 -22 -6 -23 -5 -14 17 8 20 34
21 34 2z m-54 -191 c-6 -28 -3 -37 14 -47 24 -15 26 -28 5 -28 -18 0 -19 -11
-2 -30 10 -12 9 -12 -6 0 -17 12 -21 11 -38 -10 -10 -14 -17 -31 -14 -37 2 -7
0 -13 -5 -13 -6 0 -10 -16 -10 -35 0 -19 -4 -35 -10 -35 -5 0 -10 -15 -10 -33
0 -25 9 -42 34 -66 37 -36 55 -77 30 -67 -12 5 -12 2 -3 -15 15 -28 3 -36 -21
-14 -22 20 -39 14 -21 -7 74 -88 104 -132 94 -135 -9 -3 -8 -12 5 -31 9 -15
19 -29 23 -32 3 -3 14 -21 24 -40 10 -19 22 -38 27 -41 5 -3 10 -15 11 -26 0
-13 6 -19 14 -16 9 3 13 -4 13 -21 0 -15 7 -29 15 -32 8 -4 15 -16 15 -29 0
-12 7 -28 15 -35 9 -7 14 -19 11 -27 -3 -8 -2 -21 3 -31 33 -66 52 -102 70
-135 12 -21 21 -44 21 -51 0 -7 9 -21 20 -31 11 -10 20 -25 20 -33 0 -7 9 -26
19 -41 11 -15 23 -40 27 -56 4 -15 15 -36 25 -46 10 -10 32 -47 49 -83 16 -36
36 -69 43 -73 20 -12 57 -69 57 -88 0 -9 9 -19 20 -22 11 -3 20 -12 20 -19 0
-8 5 -14 10 -14 6 0 10 -5 10 -11 0 -6 10 -24 21 -41 35 -49 89 -156 89 -176
0 -11 7 -25 15 -32 8 -7 15 -18 15 -24 0 -6 15 -42 34 -81 45 -93 60 -128 58
-138 -1 -4 7 -17 18 -29 11 -12 18 -28 16 -35 -3 -6 1 -25 9 -40 12 -26 27
-122 29 -188 1 -23 5 -29 19 -27 19 3 24 -14 5 -20 -13 -5 9 -46 39 -76 7 -7
13 -23 13 -34 0 -16 -7 -10 -30 24 -17 25 -37 52 -45 58 -8 7 -15 18 -15 25 0
7 -18 29 -40 49 -22 20 -40 41 -40 46 0 23 -231 230 -256 230 -6 0 -49 19 -95
43 l-84 42 -365 3 c-256 2 -378 -1 -410 -9 -82 -21 -151 -58 -168 -91 -10 -17
-29 -46 -44 -63 -16 -18 -28 -40 -28 -49 0 -9 -7 -30 -15 -46 -14 -28 -14 -29
17 -44 17 -9 46 -16 64 -16 18 0 36 -5 39 -10 5 -8 12 -7 23 2 9 7 13 8 9 2
-12 -20 20 -36 55 -29 22 4 28 3 19 -3 -20 -14 -3 -33 23 -26 18 4 25 1 29
-17 4 -13 9 -20 13 -16 4 4 13 2 20 -4 29 -24 71 4 65 43 0 4 11 3 25 -2 14
-6 32 -10 40 -10 18 0 68 76 61 94 -7 19 92 29 383 39 44 2 225 -12 264 -19
27 -6 105 -39 156 -67 14 -8 52 -27 85 -43 33 -16 69 -37 80 -47 11 -10 32
-21 48 -24 15 -3 27 -9 27 -13 0 -5 21 -29 46 -55 28 -29 45 -55 43 -68 -3
-42 1 -57 16 -57 11 0 15 -11 15 -39 0 -22 4 -41 9 -43 9 -3 20 -51 26 -117 2
-18 8 -38 14 -44 12 -12 15 -211 4 -204 -5 3 -6 -18 -4 -45 2 -39 0 -49 -10
-43 -9 6 -11 3 -6 -9 4 -9 0 -36 -8 -59 -8 -23 -15 -54 -15 -69 0 -15 -5 -30
-10 -33 -6 -4 -8 -16 -4 -27 4 -14 2 -18 -5 -14 -7 5 -11 -1 -11 -14 0 -42
-22 -110 -36 -110 -9 0 -14 -11 -14 -28 0 -17 -9 -34 -24 -46 -14 -10 -28 -31
-31 -48 -4 -16 -13 -32 -21 -35 -8 -3 -14 -11 -14 -18 0 -7 -8 -12 -17 -11
-12 1 -19 -7 -21 -25 -3 -24 -30 -44 -54 -40 -5 1 -8 -6 -8 -14 0 -9 -10 -20
-22 -25 -18 -7 -19 -9 -5 -9 24 -1 21 -18 -4 -26 -16 -5 -19 -12 -15 -31 5
-19 -2 -35 -34 -73 -31 -36 -40 -56 -40 -84 0 -23 -6 -39 -16 -45 -12 -7 -14
-14 -7 -28 12 -25 4 -126 -9 -118 -6 4 -8 -1 -4 -14 5 -15 1 -24 -14 -32 -11
-6 -20 -18 -20 -28 0 -9 -7 -26 -15 -36 -8 -11 -15 -29 -15 -40 0 -17 -2 -18
-10 -6 -8 12 -10 9 -10 -12 0 -18 5 -28 15 -28 24 0 17 -36 -10 -48 -29 -13
-32 -27 -8 -40 12 -7 16 -22 15 -52 -1 -23 -4 -46 -7 -50 -3 -5 0 -10 6 -12 7
-2 6 -27 -6 -82 -9 -44 -14 -85 -11 -92 3 -7 -2 -18 -10 -24 -8 -7 -14 -19
-14 -26 0 -8 -4 -14 -9 -14 -5 0 -11 -10 -13 -22 -2 -16 -9 -22 -20 -20 -11 2
-19 -4 -19 -13 -3 -37 -15 -55 -51 -78 -16 -10 -28 -24 -28 -31 0 -8 -11 -28
-25 -44 -14 -17 -25 -36 -25 -45 0 -10 -8 -13 -25 -9 -22 4 -25 1 -25 -23 0
-20 -4 -26 -15 -21 -9 3 -27 -4 -41 -17 -14 -12 -36 -32 -50 -45 -14 -12 -27
-22 -31 -22 -3 0 -14 -11 -25 -25 -13 -17 -29 -25 -51 -25 -27 0 -36 -6 -51
-34 -10 -20 -24 -32 -31 -30 -7 3 -16 1 -20 -5 -3 -6 -14 -11 -23 -11 -9 0
-23 -13 -30 -29 -11 -25 -21 -31 -60 -37 -26 -4 -55 -15 -66 -26 -15 -16 -20
-17 -27 -6 -6 10 -9 8 -9 -7 0 -26 -18 -45 -43 -45 -10 0 -25 -7 -33 -15 -8
-8 -32 -19 -53 -25 -21 -5 -49 -18 -62 -29 -39 -30 -111 -61 -141 -61 -21 0
-31 -6 -38 -24 -7 -18 -14 -22 -34 -19 -14 3 -48 -6 -82 -21 -31 -14 -65 -26
-75 -26 -11 0 -19 -6 -19 -14 0 -13 -80 -28 -145 -27 -11 0 -68 1 -127 2 -75
1 -111 5 -118 14 -6 7 -33 16 -60 20 -28 4 -53 11 -56 16 -3 6 -14 7 -25 4
-10 -4 -19 -2 -19 3 0 6 -11 13 -25 16 -15 4 -30 17 -35 31 -6 15 -17 25 -30
25 -11 0 -20 4 -20 9 0 5 -21 20 -47 33 -27 13 -52 29 -56 35 -4 7 -16 13 -26
13 -10 0 -26 9 -36 20 -10 11 -22 17 -26 14 -5 -3 -6 1 -3 9 3 8 -2 20 -11 27
-8 7 -15 18 -15 25 0 7 -7 15 -15 19 -8 3 -15 12 -15 20 0 8 -13 26 -30 39
-16 14 -30 31 -30 38 0 7 -3 10 -6 6 -7 -7 -34 17 -34 30 0 4 -11 20 -25 35
-14 15 -25 31 -25 37 0 16 -51 71 -66 71 -8 0 -14 6 -14 14 0 12 -21 39 -69
91 -11 11 -22 35 -26 53 -4 19 -11 30 -18 25 -7 -4 -8 0 -4 11 4 11 -6 35 -29
67 -20 28 -38 66 -41 85 -3 18 -9 31 -13 29 -10 -6 -39 76 -55 154 -6 26 -10
30 -17 20 -8 -11 -9 -11 -5 3 9 26 -14 88 -32 88 -10 0 -12 3 -5 8 6 4 14 22
17 40 5 25 3 32 -9 32 -11 0 -14 9 -12 38 2 28 -2 42 -19 57 -18 16 -24 38
-32 123 -6 56 -11 122 -11 146 0 29 -8 55 -25 80 -13 20 -20 36 -14 36 15 0 6
45 -14 64 -9 10 -17 25 -17 34 0 15 2 15 10 2 7 -11 10 -5 10 23 0 27 -4 37
-16 37 -10 0 -14 6 -11 15 4 8 0 27 -8 42 -8 15 -15 38 -15 51 0 12 -6 22 -14
22 -16 0 -26 89 -29 265 -3 156 4 182 58 239 24 26 46 55 49 64 5 16 60 47 81
47 6 -1 24 10 42 22 18 13 34 19 38 13 3 -5 19 -7 35 -3 18 3 30 1 30 -5 0
-12 69 -5 85 9 5 5 19 9 32 9 13 0 23 5 23 10 0 6 7 10 15 10 8 0 15 6 15 13
1 7 6 5 14 -6 12 -15 14 -16 20 -2 3 8 3 22 0 30 -7 17 11 20 22 4 5 -8 10 -6
16 5 12 21 34 21 42 -1 6 -14 8 -14 20 3 8 10 12 22 10 26 -3 4 1 5 9 3 7 -3
21 -19 30 -34 16 -27 19 -28 59 -20 23 6 47 8 55 5 7 -3 13 -1 13 4 0 6 11 10
24 10 13 0 29 7 36 15 8 10 21 13 38 8 15 -3 23 -2 19 4 -4 5 7 8 25 5 20 -3
29 -1 24 6 -4 7 6 12 26 14 24 2 33 8 32 21 -1 11 4 16 15 15 13 -3 15 5 13
39 -2 23 1 50 6 60 9 15 11 13 19 -16 8 -33 9 -33 27 -15 10 10 30 18 44 19
20 0 28 7 34 30 17 59 -6 205 -32 205 -5 0 -10 9 -10 21 0 15 -5 19 -15 15
-20 -7 -19 13 1 35 19 21 11 39 -16 39 -13 0 -17 5 -14 15 4 10 0 15 -11 15
-10 0 -15 5 -12 14 3 8 -5 18 -19 25 -13 6 -24 17 -24 25 0 8 -8 17 -17 19
-11 4 -9 5 7 5 55 -2 69 3 76 24 6 20 7 20 19 5 16 -22 26 -2 14 28 -4 11 -8
31 -8 44 -1 13 -12 39 -26 57 -14 18 -29 43 -34 56 -9 24 -107 80 -164 94 -15
3 -30 10 -33 15 -3 5 -28 9 -55 9 -27 0 -65 7 -84 14 -19 8 -35 12 -35 8 0 -4
-4 -1 -9 7 -10 15 -3 51 10 51 12 0 78 72 85 93 3 9 9 15 14 12 5 -3 29 26 55
64 49 73 85 112 85 93 0 -7 5 -12 10 -12 6 0 10 11 10 25 0 18 4 23 15 19 8
-4 15 -1 15 5 0 6 -4 11 -10 11 -20 0 -9 20 38 69 49 51 111 130 130 168 8 14
18 20 31 16 10 -3 22 0 25 6 4 6 0 11 -8 11 -23 0 -20 11 11 45 16 16 35 42
43 57 8 15 29 42 46 61 18 19 35 44 39 55 6 20 17 26 38 23 4 0 7 6 7 15 0 18
42 94 52 94 4 0 -2 -21 -12 -46 -11 -25 -20 -48 -20 -50 0 -12 39 37 42 53 4
22 36 55 48 48 5 -3 10 7 12 22 2 21 10 29 36 35 25 7 32 13 28 24 -4 10 1 18
14 21 11 3 20 9 20 14 0 5 7 9 15 9 8 0 15 9 15 20 0 11 6 20 14 20 7 0 24 16
37 35 13 20 38 43 56 51 18 9 35 25 38 36 4 10 19 24 33 31 15 6 42 26 60 44
19 18 40 33 48 33 8 0 14 9 14 20 0 11 6 20 14 20 8 0 31 16 52 35 20 19 43
35 50 35 8 0 14 4 14 9 0 5 20 20 45 32 25 12 45 25 45 29 0 8 78 60 90 60 5
0 20 14 33 30 14 17 31 30 38 30 8 0 8 4 -2 16 -11 13 -8 19 18 42 33 30 87
137 97 194 4 20 12 38 19 41 6 2 12 22 12 45 0 22 2 40 5 40 21 -2 30 4 30 20
1 16 1 16 11 -1 6 -10 8 -34 5 -52z m1718 -131 c5 -14 4 -15 -9 -4 -17 14 -19
20 -6 20 5 0 12 -7 15 -16z m-1680 -144 c6 -40 22 -52 32 -25 4 8 10 12 15 9
5 -3 7 -9 4 -14 -3 -5 8 -11 25 -15 16 -4 30 -11 30 -16 0 -16 4 -24 20 -42
21 -22 45 -91 36 -105 -9 -15 -75 16 -115 53 -32 30 -68 85 -55 85 4 0 -5 12
-20 26 -14 15 -26 35 -26 46 0 16 3 17 21 7 19 -10 20 -8 14 10 -3 12 -2 21 3
21 5 0 12 -18 16 -40z m-194 -2094 c0 -8 -4 -18 -10 -21 -5 -3 -10 3 -10 14 0
12 5 21 10 21 6 0 10 -6 10 -14z m-280 -16 c0 -5 -4 -10 -10 -10 -5 0 -10 5
-10 10 0 6 5 10 10 10 6 0 10 -4 10 -10z m150 -70 c0 -5 -5 -10 -11 -10 -5 0
-7 5 -4 10 3 6 8 10 11 10 2 0 4 -4 4 -10z m-1545 -230 c-3 -5 -10 -10 -16
-10 -5 0 -9 5 -9 10 0 6 7 10 16 10 8 0 12 -4 9 -10z m-205 -131 c7 -13 28
-41 48 -61 l36 -38 -50 0 c-54 0 -100 18 -129 50 -10 11 -24 20 -31 20 -14 0
-13 16 4 48 7 12 17 20 22 17 5 -3 13 2 18 11 7 13 13 14 31 5 20 -11 21 -9
22 31 l1 43 8 -51 c4 -28 13 -61 20 -75z m657 9 c-3 -8 -6 -5 -6 6 -1 11 2 17
5 13 3 -3 4 -12 1 -19z m-537 -20 c0 -13 -23 -5 -28 10 -2 7 2 10 12 6 9 -3
16 -11 16 -16z m522 -26 c-4 -13 -7 -12 -12 4 -4 10 -5 23 -2 28 7 13 21 -16
14 -32z m2628 -1497 c0 -16 6 -25 16 -25 31 0 10 -35 -24 -38 -35 -4 -57 23
-32 38 7 4 10 15 7 23 -6 17 1 27 20 27 7 0 13 -11 13 -25z m-3047 -1115 c3
-11 1 -18 -4 -14 -5 3 -9 12 -9 20 0 20 7 17 13 -6z"/>
<path d="M3365 5740 c-3 -5 1 -10 9 -10 9 0 16 5 16 10 0 6 -4 10 -9 10 -6 0
-13 -4 -16 -10z"/>
<path d="M3140 5449 c0 -5 5 -7 10 -4 6 3 10 8 10 11 0 2 -4 4 -10 4 -5 0 -10
-5 -10 -11z"/>
<path d="M2907 5169 c-4 -16 -3 -18 9 -8 16 13 19 29 5 29 -5 0 -11 -9 -14
-21z"/>
<path d="M4027 4465 c-9 -22 6 -24 26 -3 16 17 16 18 -2 18 -10 0 -21 -7 -24
-15z"/>
<path d="M4597 4473 c-4 -3 -46 -8 -94 -10 -48 -2 -90 -8 -93 -12 -3 -5 -25
-11 -50 -13 -25 -1 -47 -6 -51 -10 -3 -5 -27 -12 -54 -17 -26 -5 -52 -16 -57
-25 -5 -9 -18 -20 -28 -26 -16 -9 -18 -8 -13 6 4 12 0 15 -18 12 -29 -4 -40
-45 -15 -54 9 -3 16 -10 16 -15 0 -6 -9 -5 -20 1 -25 13 -40 5 -40 -20 0 -11
-12 -26 -27 -34 -16 -8 -22 -15 -14 -16 11 0 11 -3 1 -15 -7 -9 -24 -14 -38
-13 -20 2 -29 -4 -40 -24 -7 -16 -18 -28 -23 -28 -6 0 -7 -5 -3 -11 3 -6 1
-22 -7 -35 -16 -31 -5 -42 20 -20 14 13 24 14 44 7 41 -16 87 -9 87 12 0 9 7
17 15 17 8 0 15 -4 15 -10 0 -5 -3 -10 -8 -10 -4 0 -12 -8 -17 -18 -6 -10 -25
-40 -42 -67 -49 -73 -47 -75 57 -75 73 0 90 -3 90 -15 0 -14 -12 -20 -33 -16
-5 1 -6 -3 -2 -9 3 -5 1 -10 -6 -10 -17 0 22 -29 39 -30 7 0 11 4 8 9 -8 12 3
41 15 41 5 0 9 -8 9 -18 0 -18 47 -44 84 -47 12 0 31 -7 44 -13 16 -9 27 -10
42 -2 15 8 24 6 40 -10 11 -11 26 -20 33 -20 8 0 22 -9 32 -20 17 -19 41 -18
30 1 -4 5 1 9 9 9 10 0 13 -6 10 -15 -4 -8 -1 -15 5 -15 6 0 11 5 11 12 0 9 3
9 12 0 7 -7 27 -12 44 -12 18 0 35 -4 38 -9 7 -11 124 -12 131 0 4 5 13 5 25
-1 13 -7 21 -7 25 0 3 5 18 10 32 10 26 0 115 39 121 53 2 4 10 7 18 7 9 0 32
14 53 30 22 18 44 28 53 25 11 -4 22 4 34 25 11 17 30 33 44 36 64 14 87 26
103 54 11 18 15 39 12 53 -5 17 -2 26 10 31 14 5 16 15 10 58 -4 28 -14 58
-21 66 -8 7 -12 17 -10 21 3 4 -10 13 -29 19 -18 7 -40 24 -49 37 -10 15 -26
25 -41 25 -13 0 -30 9 -38 20 -8 11 -17 17 -20 14 -4 -4 -9 0 -13 9 -3 9 -19
19 -35 22 -16 4 -29 11 -29 15 0 5 -17 12 -37 16 -21 4 -56 13 -77 21 -32 11
-41 11 -48 1 -6 -10 -10 -10 -17 1 -5 7 -26 17 -47 21 -22 5 -57 13 -79 19
-45 12 -128 14 -138 4z m-481 -200 c-7 -7 -26 7 -26 19 0 6 6 6 15 -2 9 -7 13
-15 11 -17z m163 -7 c-14 -30 -59 -53 -59 -30 0 8 5 12 10 9 6 -3 10 0 10 8 0
11 24 30 47 36 2 1 -2 -10 -8 -23z m154 -139 c-6 -54 9 -98 45 -140 8 -9 13
-19 10 -22 -18 -18 -141 2 -179 28 -13 10 -34 17 -46 17 -24 0 -31 14 -13 25
8 5 8 11 0 19 -7 10 -3 20 16 40 15 14 33 26 40 26 8 0 14 4 14 9 0 5 18 11
41 15 23 4 48 13 56 21 8 8 16 15 18 15 2 0 1 -24 -2 -53z m-153 -216 c0 -5
-7 -12 -16 -15 -22 -9 -24 -8 -24 9 0 8 9 15 20 15 11 0 20 -4 20 -9z"/>
<path d="M3840 4170 c0 -5 5 -10 10 -10 6 0 10 5 10 10 0 6 -4 10 -10 10 -5 0
-10 -4 -10 -10z"/>
<path d="M3840 4125 c0 -8 2 -15 4 -15 2 0 6 7 10 15 3 8 1 15 -4 15 -6 0 -10
-7 -10 -15z"/>
<path d="M3890 4110 c0 -5 5 -10 10 -10 6 0 10 5 10 10 0 6 -4 10 -10 10 -5 0
-10 -4 -10 -10z"/>
<path d="M2568 3863 c7 -3 16 -2 19 1 4 3 -2 6 -13 5 -11 0 -14 -3 -6 -6z"/>
<path d="M3105 3070 c-4 -6 -10 -8 -15 -5 -12 7 -22 -28 -14 -49 6 -15 7 -15
20 1 13 17 13 17 14 -3 0 -28 41 -48 84 -41 24 4 36 2 36 -6 0 -7 5 -4 11 5
15 26 -15 77 -56 94 -40 16 -71 18 -80 4z"/>
<path d="M3525 3063 c-37 -5 -85 -41 -89 -66 -1 -10 -9 -23 -17 -28 -11 -7
-11 -9 -1 -9 7 0 10 -4 7 -10 -9 -15 -44 -12 -62 5 -27 28 -54 -2 -39 -42 5
-12 9 -13 21 -3 11 9 19 7 39 -13 22 -22 33 -25 94 -23 59 1 74 -3 108 -26 35
-24 44 -26 85 -18 71 14 127 40 154 72 34 40 24 51 -39 45 -69 -6 -90 4 -104
50 -10 34 -17 40 -59 52 -62 18 -63 18 -98 14z"/>
<path d="M3448 3053 c7 -3 16 -2 19 1 4 3 -2 6 -13 5 -11 0 -14 -3 -6 -6z"/>
<path d="M5095 2729 c-18 -7 -18 -8 -2 -8 14 -1 17 -6 12 -23 -5 -20 -5 -21 5
-5 17 27 9 46 -15 36z"/>
<path d="M3145 2540 c-11 -4 -23 -6 -28 -3 -4 2 -10 -3 -13 -11 -3 -8 -29 -22
-57 -30 -29 -9 -72 -31 -96 -51 -24 -19 -49 -35 -56 -35 -6 0 -20 -9 -30 -20
-13 -15 -31 -20 -64 -20 -41 0 -49 -4 -64 -29 -9 -16 -17 -38 -17 -49 0 -26
28 -55 46 -48 23 9 66 -15 111 -61 23 -24 46 -43 51 -43 5 0 18 -8 30 -17 11
-10 30 -25 42 -33 12 -8 28 -19 34 -25 6 -5 25 -16 41 -23 17 -8 43 -20 58
-28 16 -8 37 -14 48 -14 10 0 19 -4 19 -10 0 -5 20 -10 44 -10 25 0 47 -4 50
-9 11 -18 87 -20 186 -6 57 7 108 19 113 24 6 6 23 11 37 11 15 0 53 9 86 21
32 11 75 25 94 30 19 6 49 21 65 33 33 25 116 66 132 66 18 0 43 36 43 63 0
32 -68 87 -107 87 -27 0 -126 39 -131 52 -2 4 -10 8 -17 8 -8 0 -20 8 -27 18
-7 11 -30 24 -50 31 -21 7 -38 17 -38 22 0 6 -17 17 -37 26 -21 8 -40 19 -43
23 -3 5 -26 18 -52 29 -25 10 -49 24 -52 29 -7 12 -77 6 -123 -10 -27 -10 -38
-10 -55 1 -24 15 -143 23 -173 11z m45 -320 c0 -5 -7 -10 -15 -10 -8 0 -15 5
-15 10 0 6 7 10 15 10 8 0 15 -4 15 -10z m10 -40 c0 -13 -11 -13 -30 0 -12 8
-11 10 8 10 12 0 22 -4 22 -10z m-57 -11 c7 0 3 -4 -8 -8 -22 -9 -35 -5 -35
11 0 5 7 7 16 4 9 -3 21 -6 27 -7z m141 -14 c-4 -9 0 -15 10 -15 9 0 16 -6 16
-14 0 -8 6 -16 13 -19 8 -3 6 -7 -6 -12 -22 -9 -53 17 -60 51 -3 18 0 24 14
24 12 0 16 -5 13 -15z m72 -3 c-3 -2 -1 -12 4 -21 10 -20 -3 -50 -14 -32 -4 6
-1 11 6 12 7 0 2 5 -12 11 -14 6 -20 12 -13 15 7 2 9 11 6 19 -4 10 0 12 11 8
9 -4 15 -9 12 -12z m-121 -14 c-10 -33 -25 -46 -25 -22 0 16 -2 16 -10 4 -7
-12 -12 -12 -22 -2 -6 6 -22 12 -35 12 -41 0 -25 19 20 23 23 2 50 4 60 5 15
2 17 -3 12 -20z m159 6 c3 -8 2 -12 -4 -9 -6 3 -10 10 -10 16 0 14 7 11 14 -7z"/>
<path d="M5013 2195 c0 -22 2 -30 4 -17 2 12 2 30 0 40 -3 9 -5 -1 -4 -23z"/>
<path d="M3436 7410 c6 -6 21 -6 39 -1 30 9 30 9 -9 10 -26 1 -37 -2 -30 -9z"/>
<path d="M3848 7393 c7 -3 16 -2 19 1 4 3 -2 6 -13 5 -11 0 -14 -3 -6 -6z"/>
<path d="M3788 7383 c7 -3 16 -2 19 1 4 3 -2 6 -13 5 -11 0 -14 -3 -6 -6z"/>
<path d="M3985 7360 c-3 -5 -2 -10 4 -10 5 0 13 5 16 10 3 6 2 10 -4 10 -5 0
-13 -4 -16 -10z"/>
<path d="M3700 7330 c-11 -7 -4 -10 27 -10 23 0 45 5 48 10 8 13 -55 13 -75 0z"/>
<path d="M4880 7280 c0 -5 7 -10 16 -10 8 0 12 5 9 10 -3 6 -10 10 -16 10 -5
0 -9 -4 -9 -10z"/>
<path d="M5344 7102 c9 -15 48 -23 43 -9 -2 7 -14 14 -26 15 -13 2 -21 -1 -17
-6z"/>
<path d="M4796 6637 c3 -10 9 -15 12 -12 3 3 0 11 -7 18 -10 9 -11 8 -5 -6z"/>
<path d="M7801 4793 c0 -39 4 -75 9 -78 12 -7 12 53 1 110 -8 36 -9 33 -10
-32z"/>
</g>
</svg>
